<?xml version="1.0" encoding="UTF-8"?>
<svg id="_レイヤー_1" data-name="レイヤー 1" xmlns="http://www.w3.org/2000/svg" viewBox="0 0 129.75 3.24">
  <defs>
    <style>
      .cls-1 {
        fill: #615249;
      }
    </style>
  </defs>
  <path class="cls-1" d="M129.72,2.28c.07-.09.03-.28-.16-.24l-.13.33.29-.09Z"/>
  <path class="cls-1" d="M128.46,1.67c-.22.16-.48.44-.33.75.22-.32.27-.19.51-.56.19-.04.33.11.3.23.07-.08.29.07.39-.14-.24-.26-.56-.27-.88-.06-.07-.07,0-.16.01-.22Z"/>
  <path class="cls-1" d="M110.06,1.15l.12.04s-.07-.03-.12-.04Z"/>
  <path class="cls-1" d="M98.67.97c.09,0,.12-.04.13-.07-.08.02-.15.04-.13.07Z"/>
  <path class="cls-1" d="M96.72.61s.08.02.11.02c-.04-.03-.09-.05-.11-.02Z"/>
  <path class="cls-1" d="M110.06,1.15l-.3-.1c-.02.11.16.08.3.1Z"/>
  <path class="cls-1" d="M125.92,2.47c.06-.02.12-.05.17-.09-.05.01-.1.03-.16.03,0,.02,0,.03-.01.05Z"/>
  <path class="cls-1" d="M115.09.89h.09s.05-.08.08-.14l-.17.14Z"/>
  <path class="cls-1" d="M118.94.83c-.09-.01-.12.27-.15.39.05-.12.11-.17.19-.19,0-.05-.01-.12-.04-.2Z"/>
  <path class="cls-1" d="M125.06,1.33l.11-.04s-.08.02-.11.04Z"/>
  <path class="cls-1" d="M112.33.82s-.02-.08-.04-.1c0,.04.01.07.04.1Z"/>
  <path class="cls-1" d="M4.49,2.94s0-.03,0-.05c-.02.03-.03.05,0,.05Z"/>
  <path class="cls-1" d="M.02,1.55l.06-.02c0-.05.01-.11.01-.16l-.08.17Z"/>
  <path class="cls-1" d="M93.16.25s0,0,.02,0c.09-.03.04-.03-.02,0Z"/>
  <path class="cls-1" d="M60.47.45c.37.25-.6.32-.05.6-.05-.11.51-.44.05-.6Z"/>
  <path class="cls-1" d="M125.82,2.43c-.05,0-.1,0-.16,0,.07,0,.12,0,.16,0Z"/>
  <path class="cls-1" d="M60.42,1.06h0s.06.03.06.03c-.02-.01-.04-.02-.06-.03Z"/>
  <path class="cls-1" d="M84.96.42s.05.09.08.12c0-.03-.02-.06-.08-.12Z"/>
  <path class="cls-1" d="M91.07.82l-.15-.04c.06.03.11.03.15.04Z"/>
  <path class="cls-1" d="M81.78.81c-.08-.02-.11-.06-.22-.02.01.01.02.02.03.03.04-.04.09-.06.19-.01Z"/>
  <path class="cls-1" d="M78.48.81s.04.04.06.06c.03,0,.07-.01.1-.02l-.17-.04Z"/>
  <path class="cls-1" d="M14.53,2.8c-.07-.08-.12-.17-.15-.25.05.2-.43.27.15.25Z"/>
  <path class="cls-1" d="M125.92,2.31c-.02.07-.05.11-.1.12.04,0,.07,0,.11-.02,0-.04.01-.08-.01-.11Z"/>
  <path class="cls-1" d="M81.65,3.03l-.52-.04c.15.03.34.04.52.04Z"/>
  <path class="cls-1" d="M38.23,2.76l-.12.03s.09,0,.12-.03Z"/>
  <path class="cls-1" d="M79.56,3.03c-.09-.1-.19-.16-.3-.19-.02.02-.05.04-.06.07l.36.12Z"/>
  <path class="cls-1" d="M14.37,2.55s0,0,0,0c0,0,0,0,0,0Z"/>
  <path class="cls-1" d="M10.92,3.21c.5,0,.23-.36.34-.57.6-.1.28.27.48.46.37-.1.66-.44.94-.42.02.06.07.08.01.16.39-.29,1.17-.01,1.63-.38.03.03.05.06.06.09-.07-.19-.09-.37-.07-.51.22,0,.42-.23.5,0-.14,0-.15.09-.21.17l.23-.1c.21.35-.32.12-.32.38.46-.11.99-.4,1.34-.3.07.34-.82.11-.35.42l-.54-.13c.42.54-.33-.04.05.54.71.1.8-.17,1.51-.07.16-.19-.05-.28.11-.47,1.01-.34.8.85,1.54.4.19-.23.27-.66.8-.43l-.18.38c.69.04.4-.55,1.12-.29-.13.15-.54.13-.44.17.47.3.33-.22.69-.22l.07.34c.74-.05,1.55-.3,2.36-.36-.05.1-.18.21,0,.31,1.03-.17,2.2.04,3.19.24l.38-.29c.09,0,.16.13.07.19.39.11.02-.19.21-.3.22-.02.29.17.15.26.68-.25,1.94-.54,2.66-.22l-.14.09c.56.12.63-.6,1.15-.33l-.1.05c1.22.13,2.56-.14,3.49.3.18-.42,1.2.19,1.28-.4.69.29.5.4,1.47.59.26.03.39-.37.71-.43v.31s.45-.32.45-.32l.23.37.3-.08c-.12-.02-.26-.14-.24-.23.47-.14,1.15.21,1.16.37l1.12-.26c-.02.12-.21.17-.36.25.6-.31.11.32.66.04-.07-.07.04-.18.05-.25.27.19.89.19,1.35.11l-.09.21c.83.05,1.75-.1,2.68-.1-.33-.1-.26-.47.02-.5l.11.33c.18-.2-.29-.12.08-.37.35.04.23.37.03.48l.42-.11c.02.1-.07.15-.1.27.17-.2.73.33.98-.02l.02.1c.93,0,1.35-.11,2.11-.13.01-.28.31-.22.54-.45.56.09,1.18.31,1.85.29.47-.14.14-.24.35-.41.03.26.71.23.36.42.81-.04,1.03-.05,2.05-.26-.11-.11-.24-.15-.17-.24.18-.04.42.11.39.23l-.05.03c1.14-.38,2.64.75,3.55.21l-.05.03.94-.28c.43.04-.26.19.06.35,1.02-.43,1.61.06,2.45-.22.65.76,2.31-.05,3.18.43l-.05-.18c.23-.17.27.1.44.14-.02-.14-.25-.16-.11-.26,1.92-.21,3.96.26,5.93.42.72.05.41-.92,1.32-.5l-.26.33c1.45-.4,2.97.01,4.39-.32-.08.08-.09.18-.23.17.3.24,1.11.01,1.12-.18.22.02.05.18.19.28.3.14.76-.31.92-.07.03.04-.08.08-.14.1.2-.12.91.03.73-.25.53.13,1.02-.12,1.45.04.28-.31.91.15,1-.29-.04.45.94.36,1.27.15-.11.14.29.14.16.33.39,0,.74-.09.67-.32.71.54,1.43-.44,1.83.26,1.14-.24,2.2-.41,3.23-.51-.04.45-1.14.04-1.09.52.98-.19,1.54-.57,2.51-.46.25.06-.14.2-.23.27.98-.19,1.89.04,2.75-.2,0,.04-.1.09-.18.12.17-.01.4.07.38-.14l-.17.06c-.27-.3.68-.62.71-.78-.29.59.86.15.4.89.11-.04.25-.14.23-.27.17.04.22.12.05.28.61-.11.4-.33.95-.33,0,.1-.11.14-.17.25.28-.19.56-.39,1.03-.3-.03.06.03.14-.11.14.81-.03,1.37-.52,2.26-.33-.26.43.3.14.35.52l.48-.11-.19-.18c.42,0,.78-.27,1.14-.14l-.31.15.78-.07-.44-.14c.42-.19-.05-.47.51-.37-.11.04.42,0,.63.22,0,0,0,0,0,0,.21-.12.42-.24.73-.15.08.12-.06.41-.01.49.2-.31.98-.09,1.23-.42-.09.08-.09.27-.06.31l.17-.25c.19.08.22.12.19.28.58.05-.18-.47.5-.27-.05.02-.03.06-.14.1.69.11,1.34-.16,1.97-.04.19.38-.56.09-.34.41.92-.07,1.9-.45,2.78-.36l-.17-.04c.12-.53.66.26,1.11.01-.11.04-.14.29-.11.24.61.09,1.24-.13,2.16-.3l-.11.14c.36.12.94.07,1.33.13.11-.14.34-.11.2-.31,1.19.78,2.27-.42,3.33.23-.13,0-.3.12-.2.12l.9-.12c-.07-.23-.12-.14-.31-.32.11-.14.37-.24.59-.24-.41.15,0,.37.18.5-.03-.07.03-.15.02-.22.47.41.08-.46.72-.19l-.03.12c.24-.06.46-.22.72-.19.11.27-.26.12-.27.34.36-.02.72-.51,1.05-.24-.15.07-.38.08-.53.15.36.31.4.23.67.28h-.03s.62.13.62.13l-.16-.08c.46-.7.93-.13,1.54-.58-.6.43-.1.25-.14.55.16.08.4.18.33.26.29-.24.48.19.89-.16.02.1.31,0,.24.25.38-.08-.09-.17-.06-.29.58-.33,1.37.4,2.2-.05.72-.19.85-.52,1.52-.68.23.16-.18.36-.18.36.36.14.64.12.98,0-.07.09,0,.16.11.27.28-.03.18-.36.55-.21-.06.11-.14.28-.28.39.32-.09.65-.27.98-.36.09.17-.2.26-.32.37.38-.08.98-.15,1.1-.42l-.24-.1c.14-.01.07.23-.03.28-.32.21-.47-.09-.49-.19l.24-.06c-.25-.57-.96.09-1.44.06l.2-.42-.49.35c-.11-.11-.18-.34.06-.4-.35-.21-.31.15-.6-.08-.03-.04-.02-.06.01-.07l-.34.12c.07-.09-.06-.29.15-.23-.61-.24-.98.31-1.21,0l.05-.03c-.84.14-.08.31-.71.66l-.42-.75-.08.31c-.09-.01-.26-.03-.23-.16-.32.21.06.13-.13.33-.42-.28-1.15.13-1.25-.36-.15.23.4.18-.05.34-.13-.52-.52.09-.9-.15.12-.27.48-.13.1-.37-.23.46-.74-.1-1.06-.01-.02.36-.7.15-1.24.27.03-.12-1.02-.2-1.52-.33v-.06c-.08.37-.6.3-.98.37.01-.22.08-.31.29-.4h-.35c-.08.12-.19.18-.42.22l.09-.27c-.47.02-.95.32-1.56.14-.03.26.48.71-.16.88-.02-.14-.05-.38.12-.43-.06.02-.2.12-.31.06l.26-.23c-.28-.1-.14.19-.37.17,0-.2-.16-.14-.13-.3.06-.02.19.08.28,0-.25-.04-.55-.15-.65-.3.02.11,0,.27-.18.29-.47.01-.16-.24-.44-.34-.11.14-.42,0-.42.29-.14,0-.16-.14-.22-.22-.24.13-1.14.04-.87.35l.06.02s-.03,0-.04.01h0,0c-.8.29-1.66-.17-2.46-.04v-.1c-.47.11-1.05.07-1.39.28-.14,0-.33-.18-.27-.3-.36.07-.4.19-.93.02.36-.17-.13-.15.37-.13-.47-.09-.58-.24-1.08.03.17-.25-.35-.32-.58-.24l.33.18c-.25.04-.47.01-.7,0l.12-.33c-.96-.4-1.74.69-2.47.01-.25.23.52.16.3.44-.44-.04-.91-.52-1.04-.52-.61-.18-.57.49-1.2.36.08.12.16.44-.32.55-.44-.04-.55-.5-.27-.59.11,0,.16.03.15.07.14-.04.33-.09.16-.22l-.06.12c-.22-.12-.83-.11-.69-.3-.34.11-.14.19.1.26-.57-.17-.89,0-1.47-.12.09.07.18.2.09.2-.86-.15-.38.23-.96.28-.33-.18.12-.43-.47-.28-.36-.12-.08-.31.07-.41-.53.23-1-.15-1.3-.19l.28-.1c-.17.06-.31.06-.45.05l.16.24c-.17-.04-.3-.04-.3-.14-.17.16.13.39-.21.61-.22-.12-.67.13-.75-.19.69.11-.08-.32.51-.37-.11.04-.25.04-.42,0-.02-.04.02-.07.07-.08-.66-.28-.3.36-.99.35.09-.18-.16-.34-.27-.3.28,0,.13.3-.12.43-.44-.14-.48.1-.71.09l.26.07c-.09.18-.31.15-.62.21-.03-.14.28-.1.17-.16-.34.31-.77-.32-1.24-.11-.22-.12-.02-.33-.21-.42-.53.23-.58-.24-1.14-.05.16.24.19.18-.2.41l.92-.17-.59.35c.28,0,.59-.15.75-.11-.28.19-.25.14-.12.33-.38-.36-.75.21-1.19-.03v-.59c-.65-.26-1.16.3-2.02.15l.28.1c-.11.23-.53.03-.81.13.03-.2-.15-.27-.27-.39.01.15-.63-.01-.71.38l-.38-.26c-.69-.11-.79.56-1.46.5.2-.21-.1-.35.34-.51-.22,0-.42-.04-.43.1-.13-.12-.62.27-.82.08-.09.09-.12.29-.37.28-.03-.04,0-.1,0-.1,0,.1-.39.13-.17.35-.68-.62-1.91.04-2.51-.48-.48.07-1.07.13-1.51.14.03-.06,0-.1.08-.08-.61-.18-.37.57-1.06.36-.35-.32.37-.17.15-.29-.1-.65-.83.09-1.3-.29l.11-.04c-.36-.22-.87.25-1.45.2,0,0,.03-.06,0-.1-.4.33-1.15.44-1.71.53.17-.25.25-.13.15-.39-.25.04.07.41-.43.49-.16-.14-.52-.26-.57-.54h.47c-.24-.37-.61,0-.86-.06l.03-.16c-.72.05-.73.44-1.51.42l.08.12c-.42.39-.36-.22-.78.07l-.13-.39c-.28.1-.98.38-1.48.46.28-.29.87-.44,1.24-.62-.28,0-.94.03-1.09.22.11-.04.25-.13.36-.07-.34.31-.79.46-1.34.46.1-.77-1.44-.19-1.84-.79-.98.28-1.94-.12-3.08-.08.4.6-.33.02-.26.63-.27.04-.37.03-.39-.01l-.8-.37c-.19-.18.25-.13.23-.27-.58-.05-.24-.26-.63-.42.08.22-.2.31-.53.23l.47.28c-.81.33-.7-.51-1.52-.19l.26-.19c-.42.11-1.55,0-1.96.49-.07-.07-.17-.24.01-.28-1-.07-2.24.52-3.02.22l.08-.15c-.19.04-.33.28-.56.13.01-.06.08-.15-.01-.16-.1.05-.5.26-.75.17l.21-.17c-.98-.2-1.5.41-2.33.51,0-.44-.77-.58-1.15-.65v-.06c-1.13-.05-1.92.36-2.98.54-.66-.48-2.22-.2-3.28-.47.16.08-.03.34-.21.39-.25-.09-.68.31-.64-.1h.09c-.19-.39-.69-.28-1.09-.29l-.07.53c-1.04-.77-2.72.28-3.29-.41-.25.13-.56.13-.81.26v-.28c-.68-.07-1.03-.11-1.89-.04l.17-.2c-.48-.02-.61.82-1.06.83l-.13-.42c-.84,0-1.7-.36-2.53.02.01-.06.04-.18.18-.2-.4-.01-1.54-.29-1.39.29,0-.38-.87-.04-1.33.13l.07-.28c-.38.36-.4.45-.93.55-.13-.04-.11-.22.06-.15-.42-.15-.33.26-.85.12l.19-.18c-.44-.02-.4.07-.64.28-.27.11-.83-.07-.89-.32-.06.15-.3.36-.56.29-.03-.1.06-.15.11-.18-.73-.19-1.09.32-1.59.05-.01-.09-.04-.14-.08-.17.58,0,1.05.02,1,.04,0-.26-.47-.3-.1-.66-.38.19-1.02.61-1.48.49-.02-.02-.04-.05-.06-.09l.05-.03c-.11-.03-.2,0-.29.04-.15-.04-.24-.07-.38-.08-.05-.21-.54-.11-.77-.13.02.28-.29.24,0,.47-.04-.02.04-.03.2-.05.04,0,.08-.01.1-.03,0,0-.01.02-.02.02.15,0,.35-.01.58-.02-.18.14-.38.26-.64.11-.12.18-.25.37-.33.45-.32-.39-.94-.6-1.02-.85-.71.16-1.68.1-2.13.63-.2.07-.23-.15-.31-.23.12-.05.26-.04.32-.12-.41.14-1.2.05-1.3.42-.51-.17.29-.34-.42-.28l.09-.11c-1.38-.59-2.25.94-3.78.18.11.05.16.07.18.13-1.75-.33-3.6.31-5.32-.22-.49-.11-.54.13-.84.31l-.11-.3-.51.35c-.72.26-1.26-.74-2.17-.26l.12.2c-.33-.04-1.04.12-.99-.11-.03.04-.11.21-.24.11v-.16s-.82.27-.82.27c-.63-.11.1-.63-.82-.66-.34.06-.97.46-.84.57.14,0,.35.1.36.26l-.31.08c-.06.47-.3.94.47,1.27l.53-.28.17.23h-.45c.25.23.42.04.6-.09.04.12.12.2.22.25l.52-.44c.06.18-.23.36.12.46.24-.21-.23-.41.17-.54.25.21.18.38.48.2.04.12-.02.2-.14.25.27-.14.7-.06.84-.31.27.26.9-.07.87.37.08-.11.47-.35.71-.36-.45.53.92.03.8.6.33-.47,1.19-.21,1.78-.47-.03.04-.1.11-.15.09.33.04.43.18.64.27.04-.39.56-.48.83-.72.4.38-.25.46-.12.82-.02-.32.7-.32.56-.58.31.23.27.11.43.44.05-.49.29-.08.54-.38.45.24.12.46.61.31.23.15-.2.32-.2.32ZM22.6,2.37h0c-.1.01-.19.02-.24.02.05,0,.12,0,.24-.02ZM23.58,2.36c-.12-.01-.27-.01-.43-.01-.03-.1,0-.2.1-.19-.05.06.18.12.32.2ZM21.5.41c.16-.04.21.02.23.07-.07,0-.16.01-.27.03,0,.01-.01.02-.02.03.01-.05.03-.1.06-.14Z"/>
  <path class="cls-1" d="M21.22.78s-.03.02-.06.02c.03.02.06.05.09.06.02-.03.04-.06.06-.09-.03,0-.06,0-.08,0Z"/>
  <path class="cls-1" d="M110.2,1.2h-.02s.03.02.04.03c-.01-.01-.01-.02-.02-.03Z"/>
  <polygon class="cls-1" points="37.13 2.9 37.13 2.83 37.05 2.89 37.13 2.9"/>
  <path class="cls-1" d="M115.61,2.16s.03.05.07.07c0-.02-.03-.04-.07-.07Z"/>
  <path class="cls-1" d="M117.94,2.23l.33.1c-.14-.06-.25-.08-.33-.1Z"/>
  <path class="cls-1" d="M119.74,2.37s.03-.09.04-.12c0,0,0,0,0,0l-.03.12Z"/>
  <path class="cls-1" d="M91.19,2.7s-.05,0-.07.01c-.16.05-.05.03.07-.01Z"/>
  <path class="cls-1" d="M99.69,2.04c-.09.05-.18.1-.27.13.15.02.27.03.27-.13Z"/>
  <path class="cls-1" d="M81.7,3.04s0,0,0,0c-.02,0-.04,0-.06,0h.06Z"/>
  <path class="cls-1" d="M99.02,2.17c.15.06.28.04.4,0-.12-.02-.27-.05-.4,0Z"/>
  <path class="cls-1" d="M127.52,2.49h.09s0-.02.01-.03l-.1.03Z"/>
  <path class="cls-1" d="M127.62,2.46l.1-.03s-.08,0-.1.03Z"/>
  <path class="cls-1" d="M127.92,2.36l-.2.07c.07,0,.16,0,.2-.07Z"/>
  <path class="cls-1" d="M125.15,2.36l-.03.1s.02-.05.03-.1Z"/>
  <path class="cls-1" d="M124.42,2.39c.17.02.43.22.67.15l.02-.08c-.11.15-.53-.24-.7-.07Z"/>
  <path class="cls-1" d="M121.41,1.13l.61.08c-.11-.11-.24-.25.03-.28-.76-.32.16.24-.64.2Z"/>
  <path class="cls-1" d="M119.53.98c.33-.05,0-.16.01-.22-.21.1-.26.12-.01.22Z"/>
  <path class="cls-1" d="M105.97.98l.03-.26c-.25.04,0,.1-.03.26Z"/>
  <polygon class="cls-1" points="103.38 2.3 103.62 2.46 103.74 2.22 103.38 2.3"/>
  <polygon class="cls-1" points="101.84 .48 101.95 .44 101.54 .53 101.84 .48"/>
  <path class="cls-1" d="M79.07.57l.08.32c.17-.06.2-.41-.08-.32Z"/>
  <path class="cls-1" d="M69.23.89c-.11-.16-.38-.26-.55-.1.22.02.44.14.55.1Z"/>
  <polygon class="cls-1" points="39.74 .37 39.94 .27 39.57 .36 39.74 .37"/>
</svg>