<?xml version="1.0" encoding="UTF-8"?>
<svg id="_レイヤー_1" data-name="レイヤー 1" xmlns="http://www.w3.org/2000/svg" viewBox="0 0 172.03 127.86">
  <defs>
    <style>
      .cls-1, .cls-2 {
        fill: #fcc800;
      }

      .cls-1, .cls-3 {
        stroke: #4a392f;
        stroke-miterlimit: 10;
        stroke-width: .1px;
      }

      .cls-4 {
        fill: #4a392f;
      }

      .cls-5 {
        fill: #8e3d22;
      }

      .cls-6 {
        fill: #f7f7f7;
      }

      .cls-7 {
        fill: none;
        stroke: #8e3d22;
        stroke-linecap: round;
        stroke-linejoin: round;
        stroke-width: .5px;
      }

      .cls-3 {
        fill: #fdd84c;
      }
    </style>
  </defs>
  <path class="cls-1" d="M9.13,94.77c-2.83,3.58-4.34,7.11-4.7,9.66-.36,2.68.18,5.39,2.62,6.65.72.36,1.51.54,2.26.54,2.92,0,5.9-2.53,5.96-7.62,0-.6.45-.9.9-.9.51,0,.99.33.99.99,0,3.91-1.2,7.07-4.03,8.73-1.29.78-2.8,1.23-4.31,1.23s-2.92-.45-4.09-1.41c-2.08-1.63-3.1-4.67-2.32-8.58.66-3.34,2.38-6.56,4.31-9.3H.94c-1.14,0-1.2-1.69-.09-1.69h9.6c.3,0,.57-.15.72-.39.15-.3.45-.45.72-.45.39,0,.81.33.81.9,0,.9-.93,1.63-2.02,1.63h-1.57ZM21.05,103.26c-2.71,0-4.18-1.02-4.94-3.67-.33-1.23-.39-2.11-.3-4.12.03-.72.57-1.08,1.08-1.08.54,0,1.11.39,1.08,1.14-.06,1.48-.15,2.23.15,3.58.33,1.63.93,2.47,3.01,2.68.93.09.87,1.48-.09,1.48Z"/>
  <path class="cls-1" d="M40.78,95.44c.3,0,.57-.15.72-.42s.42-.39.69-.39c.45,0,.87.33.87.84,0,.9-.87,1.63-2.02,1.63h-2.8l-4.49,16.8c-.15.54-.57.78-.96.78-.57,0-1.17-.45-.99-1.23l3.94-16.35h-2.95c-1.11,0-1.08-1.66,0-1.66h3.34l1.14-4.82c.15-.69.69-.99,1.23-.99.78,0,1.6.6,1.32,1.63l-1.14,4.18h2.08ZM49.39,111.6c1.35-.06,1.48,2.02.09,2.23-.63.09-1.48.15-2.2.15-1.96,0-4.18-.3-5.39-2.05-.69-1.02-.81-2.32-.6-3.58.06-.42.45-.66.81-.66.39,0,.78.24.75.72-.09,2.08.57,3.31,3.31,3.31,1.08,0,2.02-.09,3.22-.12ZM48.48,99.68c1.29,0,2.29.9,2.29,2.17,0,.72-.6,1.11-1.14,1.17-.54.06-1.17.42-1.54.75l-1.05.9c-.15.12-.3.18-.45.18-.54,0-.9-.66-.42-1.14l1.72-1.63c.21-.18.06-.51-.21-.51h-4.61c-1.54,0-1.35-1.96,0-1.96l5.42.06ZM46.86,96.67c-.51,0-1.02-.36-.96-1.11.06-.66.18-1.51.3-1.96.12-.45.39-.6.66-.6.3,0,.54.15.66.6.12.39.27,1.32.3,1.96.03.75-.45,1.11-.96,1.11ZM49.6,96.64c-.51,0-1.05-.36-1.02-1.08.03-.6.12-1.57.21-2.02.06-.36.36-.57.66-.57s.57.12.72.57c.15.45.3,1.41.36,1.96.09.75-.39,1.14-.93,1.14Z"/>
  <path class="cls-1" d="M77.03,93.45c.3,0,.6-.15.75-.42.15-.27.42-.39.66-.39.45,0,.87.33.87.87,0,.93-.93,1.66-2.02,1.66h-4.73l-.06,4.4h3.64c.3,0,.57-.18.75-.42.15-.27.42-.42.69-.42.39,0,.81.33.81.87,0,.93-.93,1.66-1.99,1.66h-3.94l-.09,6.02c2.11.33,4.09.87,5,1.45,1.11.72.6,2.23-.45,2.23-.15,0-.36-.03-.54-.12-.63-.3-1.69-.96-3.94-1.51v1.72c0,2.83-2.05,4-4.06,4-2.32.03-4.21-1.69-4.18-4,.03-3.13,2.8-4,5.45-4,.24,0,.45.03.69.03l-.09-5.81h-5.03c-1.11,0-1.2-1.69-.09-1.69h5.09l-.06-4.4h-5.81c-1.14,0-1.23-1.72-.09-1.72h5.84v-2.59c0-.84.63-1.26,1.26-1.26s1.23.42,1.23,1.23v2.62h4.43ZM70.28,108.92c-.21-.03-.48-.03-.75-.03-1.45,0-3.19.36-3.25,2.11-.03,1.08.84,2.05,2.05,2.05,1.9,0,1.96-1.87,1.96-2.02v-2.11Z"/>
  <path class="cls-1" d="M99.61,98.75c.18-.27.36-.36.57-.36.51,0,.93.54.57,1.11-.24.39-.75,1.29-1.29,2.11-.48.78-.63,1.78-.36,2.65.24.72-.3,1.51-1.05,1.51-2.14,0-3.82-.93-3.82-3.46v-10.27c0-.75.57-1.14,1.14-1.14s1.17.42,1.14,1.17l-.24,10.15c0,.42.21.6.48.6.18,0,.42-.12.54-.3l2.32-3.76ZM108.04,102.06c0,6.47-2.53,10.57-5.99,12.8-.18.12-.33.15-.51.15-.66,0-1.08-.81-.51-1.38,3.55-3.37,4.58-6.77,4.58-11.56v-11.23c0-.78.6-1.17,1.2-1.17s1.23.42,1.23,1.23v11.17Z"/>
  <path class="cls-1" d="M136.37,102.57h5.18c.24,0,.48-.12.6-.33.15-.3.39-.42.66-.42.42,0,.84.3.84.81,0,.84-.84,1.54-1.84,1.54h-5.45v10.18c0,.78-.63,1.17-1.26,1.17-.54,0-1.11-.36-1.11-1.11v-10.24h-5.36c-.24,2.89-1.05,5.57-2.92,7.8-1.38,1.66-3.52,2.95-5.21,3.43-.09.03-.18.03-.21.03-.78,0-1.23-1.08-.39-1.51,3.88-1.93,6.02-4.55,6.38-9.75h-6.23c-1.08,0-1.14-1.6-.09-1.6h6.35c0-.69,0-2.11.03-3.19,0-.75.57-1.14,1.17-1.14s1.17.39,1.17,1.14v3.19h5.3v-3.7c0-.78.57-1.17,1.14-1.17.6,0,1.23.42,1.23,1.17v3.7ZM121.26,97.96c-1.23,0-1.41-2.02-.09-2.05.18,0,2.53-.06,3.34-.12,1.72-2.38,2.17-3.07,3.73-6.26.24-.51.63-.72,1.02-.72.75,0,1.51.75,1.17,1.72-.45,1.38-2.65,3.94-3.67,5.15,1.93-.06,6.71-.42,10.54-.96-.6-.54-1.99-1.75-2.56-2.23-.66-.54-.12-1.38.54-1.38.12,0,.27.03.39.09,1.81.93,5.33,3.76,6.59,5.36.69.9-.03,1.99-.9,1.99-.3,0-.57-.12-.84-.42-.78-.93-1.6-1.81-1.81-2.05-1.69.39-5.48.87-7.11,1.05-4.64.51-7.83.81-10.36.84Z"/>
  <path class="cls-1" d="M171.57,114.16c0,.81-.6,1.23-1.23,1.23-.57,0-1.11-.36-1.11-1.11h-17.64c-1.11,0-1.14-1.66-.09-1.66h17.73v-4.91h-15.9c-1.08,0-1.14-1.57-.06-1.57h15.96v-4.58h-17.52c-1.11,0-1.17-1.63-.06-1.63h8.64v-10c0-.78.54-1.14,1.14-1.14.63,0,1.2.39,1.2,1.17v9.97h6.92c.21-.24.54-.36.81-.36.63,0,1.2.48,1.2,1.2v13.37ZM156.15,98.3c-.39,0-.78-.18-1.02-.63-.99-1.87-2.11-3.61-3.49-5.24-.54-.66-.03-1.38.6-1.38,1.2,0,4.46,4.37,5,5.42.51.96-.33,1.84-1.08,1.84ZM166.75,98.51c-.57,0-1.08-.69-.6-1.26.78-.9,1.57-2.17,1.99-2.8,0,0,1.08-1.87,1.51-2.95.21-.51.63-.72,1.08-.72.75,0,1.57.75,1.14,1.72-.57,1.29-3.88,6.02-5.12,6.02Z"/>
  <g>
    <path class="cls-2" d="M79.8,79.93c-16.1,0-33.62-10.49-34.01-33.52.39-23.03,17.9-33.52,34.01-33.52s33.62,10.49,34.01,33.52c-.39,23.03-17.9,33.52-34.01,33.52Z"/>
    <path class="cls-4" d="M79.81,12.93c8.78,0,17,2.97,23.13,8.37,6.9,6.07,10.64,14.75,10.82,25.1-.18,10.35-3.92,19.03-10.82,25.11-6.14,5.4-14.35,8.37-23.13,8.37s-17-2.97-23.13-8.37c-6.9-6.07-10.65-14.75-10.82-25.1.18-10.35,3.92-19.03,10.82-25.1,6.14-5.4,14.35-8.37,23.13-8.37h0M79.8,12.83c-16.84,0-33.67,11.19-34.06,33.57.38,22.38,17.22,33.57,34.06,33.57s33.67-11.19,34.06-33.57c-.38-22.38-17.22-33.57-34.06-33.57h0Z"/>
  </g>
  <g>
    <path class="cls-6" d="M70.1,82.63c-7.54,0-16.88-8.4-21.73-19.53-4.15-9.54-3.66-18.09,1.34-23.45.5-.49,1.14-.76,1.8-.76.51,0,1,.17,1.41.49,0,0,6.1,4.7,6.14,4.73.83.38,1.72.55,2.92.55.5,0,1-.03,1.51-.06.52-.03,1.03-.06,1.55-.06,1.71,0,3.71.29,5.65,2.46,4.77,5.31,10.9,16.78,9.63,25.66-.55,3.87-2.46,6.83-5.66,8.82-1.39.77-2.93,1.17-4.57,1.17Z"/>
    <path class="cls-4" d="M51.5,38.94c.5,0,.98.16,1.38.48.06.05,6.09,4.69,6.16,4.74.82.38,1.73.55,2.93.55.5,0,1.02-.03,1.52-.06.51-.03,1.03-.06,1.55-.06,1.7,0,3.69.29,5.62,2.44,4.76,5.3,10.89,16.76,9.62,25.62-.55,3.85-2.45,6.81-5.63,8.78-1.39.77-2.91,1.16-4.55,1.16-3.73,0-8.03-2.08-12.1-5.85-3.92-3.63-7.32-8.48-9.58-13.66-4.14-9.52-3.66-18.05,1.32-23.39.49-.48,1.12-.75,1.76-.75M51.5,38.84c-.66,0-1.32.28-1.83.78-12.52,13.43,6.09,43.07,20.43,43.07,1.6,0,3.15-.37,4.59-1.17,12.09-7.49,2.76-27.07-3.96-34.55-1.88-2.1-3.8-2.48-5.69-2.48-1.04,0-2.06.11-3.07.11s-1.95-.11-2.89-.54c0,0-6.14-4.73-6.14-4.73-.44-.34-.94-.5-1.44-.5h0Z"/>
  </g>
  <g>
    <path class="cls-2" d="M78.44,82.68c-3.68,0-5.89-.79-6.07-2.16-.29-2.26,5.18-6.24,17.88-9.6,5.5-1.45,10.25-4.16,13.72-6.15,2.35-1.35,4.06-2.32,4.97-2.32.37,0,.59.16.68.51.74,2.81-6.29,14.68-16.87,17.46-5.68,1.48-10.63,2.26-14.31,2.26Z"/>
    <path class="cls-4" d="M108.95,62.5h0c.35,0,.55.15.63.47.33,1.25-1.16,4.9-4.14,8.61-2.08,2.58-6.49,7.16-12.7,8.79-5.67,1.48-10.62,2.26-14.3,2.26s-5.84-.77-6.02-2.12c-.29-2.24,5.17-6.19,17.85-9.55,5.51-1.45,10.26-4.17,13.73-6.15,2.35-1.34,4.04-2.31,4.95-2.31M108.95,62.4c-2.3,0-9.48,6.04-18.7,8.47-19.4,5.14-22.61,11.86-11.8,11.86,3.41,0,8.2-.67,14.33-2.26,10.76-2.83,17.6-14.87,16.91-17.52-.1-.38-.35-.54-.73-.54h0Z"/>
  </g>
  <g>
    <path class="cls-2" d="M68.51,82.64c-3.46,0-10.48-3.22-17.46-8.01-8.99-6.17-6.86-17.93-5.27-20.25.17-.25.32-.37.46-.37.36,0,.75.75,1.34,1.89,1.24,2.4,3.55,6.87,9.02,10.62,9.13,6.27,15.31,13.18,13.78,15.42-.32.46-.95.69-1.88.69Z"/>
    <path class="cls-4" d="M46.25,54.06c.33,0,.74.78,1.3,1.86,1.24,2.4,3.55,6.88,9.04,10.64,9.11,6.25,15.29,13.13,13.77,15.35-.31.45-.93.67-1.84.67-3.45,0-10.46-3.21-17.43-8-4.9-3.36-6.3-8.16-6.62-11.6-.36-3.97.6-7.47,1.36-8.58.16-.23.3-.34.42-.34M46.25,53.96c-.16,0-.32.12-.5.39-1.55,2.26-3.89,14.03,5.28,20.32,7.2,4.94,14.1,8.02,17.49,8.02.93,0,1.59-.23,1.92-.72,1.55-2.26-4.63-9.19-13.8-15.48-8.1-5.56-9.18-12.52-10.39-12.52h0Z"/>
  </g>
  <path class="cls-5" d="M71.99,35.67c-.03,5.65-8.62,5.65-8.65,0,.03-5.65,8.62-5.65,8.65,0Z"/>
  <path class="cls-5" d="M96.2,39.36c-.03,5.66-8.63,5.66-8.66,0,.03-5.66,8.63-5.66,8.66,0Z"/>
  <path class="cls-7" d="M85.63,45.04l-2.17-1.12c-.57,9.3-10.44,6.68-9.42-1.15l-1.97,1.42"/>
  <g>
    <path class="cls-2" d="M92.89,9.89c-1.51,0-3.94-.46-6.29-.91-1.69-.32-3.28-.63-4.45-.74-.09-.07-.15-.18-.15-.34-.05-1.62,5.62-6.82,6.96-7.86,1.78.17,4.55,7.2,5.36,9.35-.04.32-.52.5-1.43.5h0Z"/>
    <path class="cls-4" d="M88.96.1c.5.08,2.21,1.04,5.31,9.28-.05.3-.51.46-1.38.46-1.5,0-3.93-.46-6.28-.91-1.67-.32-3.26-.62-4.43-.74-.09-.07-.13-.16-.14-.29-.05-1.59,5.51-6.7,6.91-7.79M88.93,0c-1.39,1.07-8.23,7.32-6.78,8.28,2.8.28,8.15,1.66,10.74,1.66.88,0,1.44-.16,1.48-.57-.7-1.87-3.55-9.2-5.44-9.37h0Z"/>
  </g>
  <g>
    <path class="cls-2" d="M111.38,20.92c-1.08,0-3.79-2.27-6.18-4.27-1.32-1.1-2.56-2.14-3.52-2.81-.05-.1-.04-.23.03-.37.74-1.44,8.23-3.23,9.91-3.48,1.47,1.02.47,8.51.13,10.78-.07.09-.19.15-.36.15h0Z"/>
    <path class="cls-4" d="M111.58,10.05c1.43,1.09.46,8.41.12,10.69-.07.09-.17.13-.32.13-1.07,0-3.77-2.26-6.15-4.25-1.31-1.09-2.54-2.13-3.51-2.8-.04-.1-.04-.21.02-.32.73-1.42,8.08-3.17,9.83-3.44M111.6,9.94c-1.73.26-10.75,2.39-9.96,3.94,2.79,1.94,8.05,7.09,9.73,7.09.18,0,.32-.06.41-.19.3-1.98,1.38-9.77-.19-10.83h0Z"/>
  </g>
  <g>
    <path class="cls-2" d="M60.59,12.28c-.13-.02-.23-.09-.31-.22-.82-1.4,1.68-8.68,2.36-10.23.08-.03.22-.05.37-.05,1.81,0,6.38,3.59,8.8,5.71.03.09.03.19-.03.31-.43.93-3.9,2.04-6.95,3.02-1.63.52-3.17,1.01-4.25,1.47Z"/>
    <path class="cls-4" d="M63.01,1.83c1.79,0,6.33,3.56,8.75,5.68.03.08.02.17-.02.27-.42.91-3.87,2.02-6.92,2.99-1.62.52-3.16,1.01-4.24,1.46-.11-.02-.19-.08-.26-.19-.81-1.37,1.65-8.53,2.35-10.15.1-.04.21-.06.34-.06M63.01,1.73c-.16,0-.3.03-.42.08-.71,1.6-3.74,10.36-2,10.52,3.48-1.46,11.89-3.38,11.26-4.88-1.35-1.18-6.75-5.72-8.84-5.72h0Z"/>
  </g>
  <g>
    <path class="cls-2" d="M45.01,26.41c-1.46,0-3.57-8.23-3.85-9.9.37-.54,1.74-.84,4.05-.84s5.25.33,6.72.52c.07.05.13.15.15.27.16,1.01-2.13,3.85-4.15,6.34-1.08,1.33-2.1,2.6-2.75,3.57-.04.02-.1.03-.16.03h0Z"/>
    <path class="cls-4" d="M45.22,15.73c2.41,0,5.21.32,6.69.52.07.05.11.13.13.23.15.99-2.13,3.81-4.14,6.3-1.07,1.33-2.08,2.58-2.74,3.55-.04.02-.09.03-.14.03-1.37,0-3.42-7.65-3.8-9.82.28-.38,1.21-.82,4-.82M45.22,15.63c-1.95,0-3.66.21-4.1.9.28,1.65,2.37,9.94,3.9,9.94.07,0,.14-.02.2-.05,2.1-3.13,8.08-9.36,6.72-10.26-1.13-.15-4.15-.52-6.73-.52h0Z"/>
  </g>
  <g>
    <path class="cls-2" d="M118.8,38.69c-.97,0-1.89-3.83-2.71-7.21-.4-1.67-.78-3.25-1.16-4.36.05-.25.34-.39.87-.39,2.29,0,8.21,2.58,9.4,3.21.55,1.44-3.7,6.17-6.31,8.74-.02,0-.06,0-.1,0h0Z"/>
    <path class="cls-4" d="M115.81,26.79c2.26,0,8.08,2.52,9.34,3.19.49,1.48-3.69,6.12-6.27,8.66-.03,0-.06.01-.08.01-.93,0-1.89-3.98-2.66-7.17-.4-1.66-.78-3.22-1.15-4.34.05-.23.33-.35.82-.35M115.81,26.69c-.53,0-.87.13-.92.45,1.17,3.47,2.43,11.61,3.91,11.61.05,0,.09,0,.14-.02,1.38-1.36,6.97-7.1,6.3-8.82-1.26-.67-7.13-3.22-9.43-3.22h0Z"/>
  </g>
  <g>
    <path class="cls-2" d="M118.25,59c-.11,0-.2-.06-.28-.15-.66-.78-.2-4.39.2-7.58.22-1.7.42-3.31.47-4.48.07-.11.2-.18.4-.18,1.7,0,7.13,5.23,8.2,6.47-.06,1.78-6.88,4.98-8.99,5.92Z"/>
    <path class="cls-4" d="M119.03,46.66c1.67,0,7,5.13,8.14,6.42-.05.51-.9,2.27-8.93,5.87-.09,0-.17-.05-.23-.13-.65-.76-.19-4.36.21-7.54.22-1.69.42-3.29.47-4.46.07-.11.18-.16.35-.16M119.03,46.56c-.2,0-.35.07-.45.23-.15,3.77-1.96,12.21-.33,12.27,1.83-.82,8.97-4.11,9.02-6.01-1.03-1.18-6.49-6.48-8.24-6.48h0Z"/>
  </g>
  <g>
    <path class="cls-2" d="M41.16,45.57c-1.88-1.28-8.06-5.63-7.79-7.43,1.2-.95,7.06-4.92,9-4.92.3,0,.48.09.55.28-.16,1.14-.24,2.76-.33,4.48-.17,3.56-.37,7.6-1.38,7.6h-.06Z"/>
    <path class="cls-4" d="M42.38,33.27h0c.26,0,.42.08.49.23-.16,1.16-.24,2.77-.32,4.48-.16,3.36-.37,7.55-1.33,7.55,0,0-.02,0-.03,0-7.28-4.95-7.81-6.83-7.77-7.34,1.24-.99,7.08-4.91,8.96-4.91M42.38,33.17c-1.96,0-7.87,4.01-9.05,4.96-.28,1.88,6.18,6.37,7.83,7.49.02,0,.04,0,.06,0,1.55,0,1.25-8.45,1.75-12.14-.08-.22-.29-.32-.59-.32h0Z"/>
  </g>
  <path class="cls-3" d="M11.6,127.2l.06-3.19c0-.58.02-1.48-.07-2.03.28-.16.74-.29,1.15-.29.49,0,.66.23.66.6l-.03,1.6v.49c.62.07,1.24.07,1.85.04v-.41c.02-.58.02-1.48-.06-2.03.28-.16.72-.29,1.17-.29.47,0,.64.23.64.6l-.03,1.6c-.03,1.43-.05,3.34.06,3.64-.28.16-.75.29-1.12.29-.54,0-.72-.23-.71-.61l.03-1.71c-.62.02-1.22.02-1.85-.02,0,.97.02,1.85.1,2.05-.28.16-.8.29-1.15.29-.52,0-.7-.23-.69-.61Z"/>
  <path class="cls-3" d="M23.56,127.19l.06-3.18c0-.58-.04-1.48-.07-2.03.28-.16.72-.29,1.12-.29.45,0,.62.23.62.6,0,.29-.02,1.12-.02,1.94,0,1.1,0,2.19.07,3.29-.28.16-.79.28-1.13.28-.49,0-.66-.22-.66-.6Z"/>
  <path class="cls-3" d="M32.25,127.7c-.28-.04-.3-.15-.3-.37v-3.52c0-.63,0-1.35-.06-1.82.7-.18,1.51-.29,2.24-.29,2.56,0,3.42,1.31,3.42,3.01,0,2.08-1.33,3.12-3.43,3.12-.57,0-1.64-.07-1.86-.11ZM33.77,126.93c1.44,0,2.01-.72,2.01-2.09,0-1.88-.71-2.34-1.72-2.34-.12,0-.26,0-.41.02v4.41h.12Z"/>
  <path class="cls-3" d="M43.9,127.78c-.39,0-.66-.19-.53-.56l1.77-5.32c.38-.15,1.08-.22,1.32-.22.43,0,.64.14.89.95l1.5,4.81c-.18.11-.73.35-1.22.35-.3,0-.58-.06-.7-.51l-.21-.82h-1.99l-.38,1.24c-.16.06-.32.08-.46.08ZM46.5,125.56l-.68-2.66-.81,2.66h1.49Z"/>
  <path class="cls-3" d="M59.93,123.86l-1.32,3.4c-.38.17-.72.19-1.06.02l-1.55-3.4c0,1.45-.02,3.57.06,3.83-.71.15-1.04.06-1.04-.4v-5.4c.82-.38,1.7-.28,1.89.17l1.43,3.44,1.42-3.69c.45-.16,1.43-.24,1.79.02,0,1.9-.09,5.09.14,5.66-.28.16-.71.29-1.05.29-.54,0-.7-.23-.7-.61v-3.34Z"/>
  <path class="cls-3" d="M68.41,127.78c-.39,0-.66-.19-.53-.56l1.77-5.32c.38-.15,1.08-.22,1.32-.22.43,0,.64.14.89.95l1.5,4.81c-.18.11-.73.35-1.22.35-.3,0-.58-.06-.7-.51l-.21-.82h-1.99l-.38,1.24c-.16.06-.32.08-.46.08ZM71.01,125.56l-.68-2.66-.81,2.66h1.49Z"/>
  <path class="cls-3" d="M80.25,127.81c-.5,0-.66-.23-.66-.61v-4.72c0-.34-.02-.45-.05-.5,1.05-.19,1.7-.28,2.37-.28,1.76,0,2.57.66,2.57,1.69s-.7,1.56-1.55,1.81c.31.64,1.03,1.42,1.84,1.3,0,.76-.48,1.31-1.07,1.31-1.12,0-1.61-1.52-1.85-2.45-.19,0-.4,0-.58,0,.02.99.04,1.84.09,2.16-.28.16-.77.29-1.11.29ZM81.27,124.68c1.11-.04,1.45-.57,1.45-1.2,0-.71-.43-.89-.99-.89-.16,0-.32.02-.47.03v2.06Z"/>
  <path class="cls-3" d="M91,127.19l.06-3.18c0-.58-.04-1.48-.07-2.03.28-.16.72-.29,1.12-.29.45,0,.62.23.62.6,0,.29-.02,1.12-.02,1.94,0,1.1,0,2.19.07,3.29-.28.16-.79.28-1.13.28-.49,0-.66-.22-.66-.6Z"/>
  <path class="cls-3" d="M107.37,127.7c-.28-.06-.3-.19-.3-.37v-3.52c0-.63,0-1.35-.06-1.82.7-.18,1.41-.29,2.28-.29,1.07,0,2.76.18,2.76,1.47,0,.81-.66,1.22-1.38,1.41.78.09,1.63.43,1.63,1.42,0,1.13-1.13,1.83-3.18,1.83-.33,0-1.34-.02-1.75-.11ZM109.15,124.23c.89,0,1.13-.42,1.13-.86,0-.62-.41-.79-1.06-.79-.14,0-.28,0-.44.02v1.62h.37ZM109.02,126.9c.76,0,1.51-.17,1.51-.99,0-.53-.28-.92-1.29-.92h-.46v1.9c.09,0,.16,0,.24,0Z"/>
  <path class="cls-3" d="M119.24,127.69c-.54-.02-.55-.34-.55-.75v-4.22c0-.22-.02-.45-.06-.74,1.26-.23,3.88-.05,4.1-.23.06.08.11.29.11.45,0,.3-.11.66-.88.66l-1.56-.04v1.58c.88,0,1.71,0,2.13-.05.04.1.06.21.06.34,0,.31-.17.62-.73.62-.34,0-.92,0-1.47-.03v1.63c.72,0,1.87-.06,2.33-.29.06.15.08.36.08.49,0,.35-.19.62-.73.62-1.03,0-2.11,0-2.84-.04Z"/>
  <path class="cls-3" d="M129.17,121.91c.31-.15.62-.2.89-.21.33,0,.6.05.7.07l2.07,3.8c-.02-1.4-.11-2.92-.23-3.74.16-.06.44-.15.7-.15.31,0,.58.13.58.47l-.09,5.32c-.28.24-1.1.41-1.47.28l-2.08-3.63c.03,1.45.12,3.21.2,3.4-.3.16-.61.28-.85.28-.27,0-.45-.08-.45-.32l.03-5.56Z"/>
  <path class="cls-3" d="M141.67,127.2l.06-3.19c0-.29.02-.63,0-1h-1.54c-.08-.19-.16-.39-.17-.7,0-.33.11-.49.45-.49h1.12c1.3,0,3.01-.04,3.39-.07.07.19.11.36.11.59,0,.42-.28.66-.9.66h-.75l-.02.87c-.03,1.43-.05,3.34.07,3.64-.28.16-.78.29-1.12.29-.54,0-.72-.23-.71-.61Z"/>
  <path class="cls-3" d="M150.91,124.75c0-1.9,1.14-3.07,2.95-3.07s2.95,1.17,2.95,3.07-1.14,3.05-2.95,3.05-2.95-1.17-2.95-3.05ZM155.06,124.75c0-1.64-.46-2.17-1.19-2.17s-1.19.53-1.19,2.17.46,2.15,1.19,2.15,1.19-.52,1.19-2.15Z"/>
</svg>