<?xml version="1.0" encoding="UTF-8"?>
<svg id="_レイヤー_1" data-name="レイヤー 1" xmlns="http://www.w3.org/2000/svg" viewBox="0 0 315.84 278.1">
  <defs>
    <style>
      .cls-1 {
        fill: #fcc800;
      }

      .cls-2 {
        fill: #4a392f;
      }

      .cls-3 {
        fill: #8e3d22;
      }

      .cls-4 {
        fill: #f7f7f7;
      }

      .cls-5 {
        fill: none;
        stroke: #8e3d22;
        stroke-linecap: round;
        stroke-linejoin: round;
        stroke-width: .5px;
      }
    </style>
  </defs>
  <g>
    <path class="cls-1" d="M156.26,268.79c-54.19,0-113.11-35.3-114.43-112.81,1.32-77.5,60.24-112.8,114.43-112.8s113.11,35.3,114.43,112.8c-1.32,77.5-60.24,112.8-114.43,112.8Z"/>
    <path class="cls-2" d="M156.28,43.24c14.36,0,28.34,2.37,41.55,7.05,13.69,4.85,25.92,11.96,36.36,21.14,23.26,20.46,35.86,49.7,36.45,84.56-.6,34.86-13.2,64.11-36.46,84.56-10.44,9.18-22.67,16.3-36.37,21.14-13.21,4.68-27.19,7.05-41.55,7.05s-28.34-2.37-41.56-7.05c-13.69-4.85-25.93-11.96-36.37-21.14-23.26-20.46-35.86-49.7-36.46-84.57.6-34.86,13.2-64.1,36.46-84.56,10.44-9.18,22.67-16.29,36.36-21.14,13.21-4.68,27.19-7.05,41.56-7.05h0M156.26,43.14c-56.59,0-113.19,37.62-114.48,112.85,1.27,75.24,57.87,112.86,114.48,112.86s113.19-37.62,114.48-112.85c-1.27-75.24-57.87-112.86-114.48-112.85h0Z"/>
  </g>
  <g>
    <path class="cls-4" d="M123.64,277.89c-25.4,0-56.84-28.26-73.14-65.73-13.97-32.12-12.32-60.9,4.52-78.96,1.7-1.68,3.88-2.6,6.12-2.6,1.75,0,3.41.57,4.82,1.66.21.16,20.56,15.83,20.63,15.88,2.74,1.26,5.74,1.82,9.74,1.82,1.68,0,3.41-.09,5.08-.19,1.71-.09,3.48-.19,5.23-.19,5.77,0,12.54.99,19.09,8.31,16.03,17.86,36.69,56.46,32.4,86.35-1.87,13.04-8.29,23.03-19.08,29.72-4.7,2.61-9.89,3.93-15.42,3.93Z"/>
    <path class="cls-2" d="M61.14,130.65c1.73,0,3.39.57,4.79,1.65.21.16,20.53,15.8,20.65,15.9,2.74,1.25,5.74,1.81,9.75,1.81,1.68,0,3.41-.09,5.08-.19,1.71-.09,3.48-.19,5.23-.19,5.75,0,12.52.99,19.05,8.29,16.03,17.86,36.67,56.44,32.39,86.31-1.87,13.02-8.28,23.01-19.05,29.68-4.69,2.61-9.87,3.93-15.4,3.93-12.59,0-27.09-7-40.84-19.71-13.21-12.21-24.66-28.54-32.25-45.99-6.4-14.72-9.63-29.41-9.33-42.46.34-14.7,4.99-26.96,13.83-36.44,1.69-1.67,3.86-2.59,6.09-2.59M61.14,130.55c-2.23,0-4.45.93-6.16,2.62-42.08,45.14,20.46,144.77,68.66,144.77,5.38,0,10.58-1.24,15.44-3.94,40.64-25.17,9.27-90.98-13.31-116.14-6.32-7.07-12.78-8.33-19.13-8.33-3.48,0-6.93.38-10.31.38s-6.56-.36-9.71-1.8c0,0-20.63-15.88-20.63-15.88-1.48-1.14-3.17-1.67-4.85-1.67h0Z"/>
  </g>
  <g>
    <path class="cls-1" d="M151.69,278.05c-12.43,0-19.91-2.69-20.52-7.37-1.42-10.93,30.21-24.46,60.21-32.41,18.47-4.85,34.43-13.98,46.09-20.65,7.93-4.54,13.66-7.81,16.77-7.81,1.3,0,2.08.59,2.4,1.79,1.15,4.37-3.76,16.48-13.97,29.19-7,8.71-21.87,24.15-42.83,29.66-19.09,4.97-35.74,7.6-48.14,7.6Z"/>
    <path class="cls-2" d="M254.23,209.76v.1c1.27,0,2.04.57,2.35,1.75.58,2.22-.44,6.43-2.8,11.56-2.57,5.58-6.53,11.82-11.16,17.58-7,8.71-21.86,24.14-42.8,29.64-19.09,4.97-35.73,7.6-48.13,7.6s-19.86-2.67-20.47-7.33c-.55-4.19,4.42-9.52,13.98-15.01,10.81-6.21,26.78-12.21,46.19-17.35,18.48-4.86,34.45-13.99,46.1-20.66,7.92-4.53,13.64-7.8,16.74-7.8v-.1M254.23,209.76c-7.73,0-31.87,20.32-62.87,28.46-65.22,17.29-76,39.88-39.67,39.88,11.45,0,27.58-2.24,48.15-7.61,36.15-9.5,59.18-50,56.84-58.91-.33-1.27-1.16-1.83-2.45-1.83h0Z"/>
  </g>
  <g>
    <path class="cls-1" d="M118.32,277.9c-11.67,0-35.28-10.82-58.76-26.94-16.56-11.36-21.3-27.59-22.36-39.2-1.23-13.41,2.04-25.26,4.63-29.04.59-.86,1.13-1.28,1.66-1.28,1.29,0,2.54,2.42,4.61,6.42,4.16,8.06,11.9,23.05,30.29,35.66,30.75,21.1,51.55,44.42,46.36,51.98-1.09,1.58-3.25,2.39-6.42,2.39Z"/>
    <path class="cls-2" d="M43.48,181.49h0c1.26,0,2.57,2.54,4.56,6.4,4.16,8.06,11.91,23.06,30.3,35.68,14.9,10.22,27.93,21.27,36.68,31.09,8.72,9.79,12.16,17.19,9.66,20.82-1.08,1.57-3.22,2.36-6.38,2.36-11.66,0-35.26-10.82-58.73-26.93-16.54-11.35-21.28-27.56-22.34-39.16-1.23-13.4,2.03-25.23,4.63-29.01.58-.85,1.11-1.26,1.61-1.26M43.48,181.39c-.54,0-1.09.41-1.7,1.3-5.21,7.6-13.08,47.16,17.74,68.31,24.2,16.61,47.41,26.94,58.79,26.94,3.11,0,5.34-.77,6.46-2.41,5.21-7.6-15.55-30.9-46.37-52.05-27.22-18.67-30.86-42.1-34.92-42.1h0Z"/>
  </g>
  <path class="cls-3" d="M130,119.9c-.09,19.01-28.98,19.01-29.07,0,.09-19.01,28.98-19,29.07,0Z"/>
  <path class="cls-3" d="M211.38,132.31c-.09,19.03-29.01,19.02-29.1,0,.09-19.03,29.01-19.02,29.1,0Z"/>
  <path class="cls-5" d="M175.85,151.41l-7.28-3.78c-1.93,31.26-35.1,22.44-31.65-3.87l-6.63,4.78"/>
  <g>
    <path class="cls-1" d="M200.27,33.37c-5.08,0-13.26-1.56-21.16-3.07-5.67-1.08-11.02-2.1-14.94-2.5-.39-.27-.61-.69-.63-1.24-.19-5.49,18.92-23.02,23.45-26.51,6.12.56,15.48,24.24,18.2,31.48-.12,1.23-1.73,1.84-4.92,1.84,0,0,0,0,0,0Z"/>
    <path class="cls-2" d="M186.99.1c2.66.28,6.2,4.84,10.52,13.55,3.29,6.64,6.19,14.04,7.63,17.87-.14,1.21-1.73,1.8-4.87,1.8-5.07,0-13.25-1.56-21.15-3.07-5.65-1.08-10.99-2.1-14.92-2.5-.39-.27-.59-.66-.61-1.2-.18-5.46,18.82-22.91,23.4-26.45M186.96,0c-4.67,3.59-27.67,24.59-22.8,27.85,9.42.95,27.4,5.57,36.11,5.57,2.95,0,4.84-.53,4.97-1.91-2.36-6.29-11.92-30.94-18.28-31.51h0Z"/>
  </g>
  <g>
    <path class="cls-1" d="M262.42,70.43c-3.69,0-12.42-7.3-20.86-14.37-4.42-3.7-8.6-7.2-11.84-9.45-.21-.42-.2-.9.06-1.39,2.51-4.89,27.73-10.91,33.39-11.75,5.08,3.47,1.73,28.71.58,36.36-.28.4-.72.6-1.34.6h0Z"/>
    <path class="cls-2" d="M263.14,33.52c2.19,1.54,3.06,7.24,2.6,16.95-.35,7.4-1.42,15.27-2.03,19.32-.28.39-.7.58-1.29.58-3.67,0-12.39-7.3-20.82-14.36-4.41-3.69-8.58-7.18-11.82-9.44-.21-.43-.19-.86.05-1.34,2.5-4.86,27.59-10.86,33.31-11.72M263.17,33.41c-5.83.87-36.14,8.02-33.47,13.23,9.38,6.54,27.06,23.83,32.72,23.83.61,0,1.08-.2,1.39-.64,1-6.65,4.63-32.83-.64-36.42h0Z"/>
  </g>
  <g>
    <path class="cls-1" d="M91.69,41.39c-.49-.05-.88-.31-1.16-.79-2.79-4.74,5.63-29.26,7.94-34.49.36-.16.82-.25,1.36-.25,7.66,0,28.78,18.43,29.67,19.21.15.36.13.76-.06,1.17-1.46,3.18-12.64,6.75-23.45,10.21-5.49,1.75-10.67,3.41-14.31,4.94Z"/>
    <path class="cls-2" d="M99.83,5.9c7.6,0,28.5,18.21,29.62,19.19.15.36.13.73-.05,1.13-1.45,3.16-13.12,6.89-23.42,10.18-5.48,1.75-10.66,3.41-14.3,4.93-.47-.05-.83-.3-1.11-.76-2.77-4.71,5.6-29.12,7.93-34.41.37-.17.81-.25,1.33-.25M99.83,5.8c-.54,0-1.01.09-1.4.28-2.39,5.39-12.57,34.82-6.73,35.35,11.68-4.9,39.98-11.35,37.84-16.4-4.54-3.98-22.67-19.23-29.7-19.23h0Z"/>
  </g>
  <g>
    <path class="cls-1" d="M39.32,88.91c-5,0-12-27-13.06-33.37,1.29-1.95,5.92-2.96,13.75-2.96s17.66,1.1,22.6,1.75c.32.22.53.56.6,1.01.53,3.46-6.85,12.59-13.98,21.41-3.62,4.48-7.05,8.72-9.25,12-.2.1-.42.16-.65.16h0Z"/>
    <path class="cls-2" d="M40,52.62c8.13,0,17.62,1.1,22.57,1.75.32.22.51.54.58.97.53,3.44-7.18,12.97-13.97,21.37-3.62,4.48-7.04,8.71-9.24,11.98-.2.1-.41.15-.62.15-4.95,0-12.04-27.58-13.01-33.29,1.32-1.95,5.93-2.94,13.69-2.94M40,52.52c-6.56,0-12.29.72-13.8,3.02.93,5.56,7.98,33.42,13.11,33.42.23,0,.46-.06.69-.18,7.07-10.52,27.17-31.46,22.6-34.5-3.8-.5-13.93-1.75-22.61-1.75h0Z"/>
  </g>
  <g>
    <path class="cls-1" d="M287.35,130.19c-3.35,0-6.47-12.93-9.22-24.34-1.35-5.61-2.63-10.9-3.88-14.64.17-.96,1.19-1.46,3.04-1.46,7.71,0,27.65,8.67,31.66,10.81,2.42,6.21-20.21,28.62-21.17,29.57-.13.04-.28.06-.43.06h0Z"/>
    <path class="cls-2" d="M277.29,89.8c7.68,0,27.52,8.62,31.6,10.78,2.32,6.22-19.96,28.33-21.14,29.49-.14.04-.27.07-.41.07-3.31,0-6.42-12.91-9.17-24.3-1.35-5.6-2.62-10.88-3.88-14.62.17-.94,1.18-1.42,2.98-1.42M277.29,89.7c-1.77,0-2.91.45-3.09,1.53,3.92,11.65,8.16,39.01,13.15,39.01.15,0,.31-.03.46-.08,4.63-4.56,23.42-23.88,21.16-29.65-4.24-2.26-23.96-10.81-31.68-10.81h0Z"/>
  </g>
  <g>
    <path class="cls-1" d="M285.51,198.44c-.41-.02-.76-.2-1.05-.54-2.27-2.67-.78-14.31.65-25.57.73-5.72,1.42-11.12,1.57-15.07.28-.47.77-.71,1.45-.71,5.76,0,24.03,17.62,27.67,21.78-.18,6.15-23.21,16.94-30.29,20.11Z"/>
    <path class="cls-2" d="M288.13,156.6c5.73,0,23.91,17.52,27.6,21.73-.11,2.67-4.44,6.49-12.87,11.34-6.43,3.7-13.63,7.05-17.36,8.72-.39-.02-.72-.19-1-.52-2.25-2.65-.7-14.8.66-25.53.73-5.71,1.42-11.1,1.57-15.05.28-.46.74-.69,1.4-.69M288.13,156.5c-.68,0-1.19.24-1.5.76-.49,12.66-6.6,41.04-1.11,41.23,6.13-2.75,30.14-13.82,30.31-20.19-3.48-3.98-21.82-21.8-27.7-21.8h0Z"/>
  </g>
  <g>
    <path class="cls-1" d="M26.56,153.32c-.07,0-.13,0-.2-.01-6.38-4.34-27.2-19-26.28-25.12,4.08-3.27,23.82-16.64,30.38-16.64,1.04,0,1.7.35,1.95,1.03-.54,3.88-.81,9.32-1.09,15.08-.59,12.02-1.25,25.65-4.76,25.65Z"/>
    <path class="cls-2" d="M30.46,111.5v.1c1.02,0,1.64.32,1.89.98-.54,3.91-.8,9.34-1.08,15.09-.58,12-1.25,25.6-4.71,25.6-.06,0-.11,0-.17-.01-3.38-2.3-9.89-6.85-15.57-11.62C3.37,135.39-.23,130.88.12,128.23c4.17-3.34,23.8-16.63,30.34-16.63v-.1M30.46,111.5c-6.58,0-26.46,13.48-30.43,16.68-.94,6.31,20.76,21.4,26.32,25.18.07.01.14.02.21.02,5.19,0,4.19-28.42,5.89-40.8-.27-.74-.97-1.06-1.99-1.06h0Z"/>
  </g>
</svg>