<?xml version="1.0" encoding="UTF-8"?>
<svg id="_レイヤー_1" data-name="レイヤー 1" xmlns="http://www.w3.org/2000/svg" viewBox="0 0 119.34 32.61">
  <defs>
    <style>
      .cls-1 {
        fill: #4a392f;
      }
    </style>
  </defs>
  <path class="cls-1" d="M1.34,31.6c-.89-1.71-1.14-3.62-.76-5.71C.14,17.83-.05,9.71.01,1.71.71.82,1.66.57,2.87.89c.7,1.02.95,2.35.82,3.87l-.25.76c.38,5.84.57,11.67.51,17.51,0,1.78.32,3.3,1.02,4.7-.51,1.21-.7,2.47-.51,3.87l-1.02.76-2.09-.76ZM11.18,31.02l-.76-2.03.25-1.52-.25-.82.51-10.02c-.19-2.22-.25-4.44-.25-6.73s-.38-4.38-1.08-6.41l-2.6-1.08v-.7l4.19-1.08,1.78,1.27c1.27,3.11,1.78,6.47,1.59,10.09-.19,3.43-.25,6.92-.25,10.34,0,2.6.19,5.14.51,7.74l-1.02,1.52-1.33.25-1.27-.82ZM23.04,31.02l-.51-20.05.25-1.52c-.32-2.09-1.08-4-2.28-5.71l-2.6-1.08v-.76l2.6-1.02.76.25.82-.25,2.03,1.52c1.59,2.92,2.41,6.15,2.6,9.58l-.25,1.02.25,2.85-.25.76c.32,5.01.44,9.96.51,14.97-.51.7-1.27,1.02-2.28,1.02l-1.65-1.59Z"/>
  <path class="cls-1" d="M35.98,28.11c-1.71-1.65-2.92-3.49-3.49-5.65-.63-2.16-.89-4.44-.7-6.85.32-4.12,1.9-7.8,4.7-11.04,2.6-2.35,5.77-3.49,9.58-3.3,2.92.63,5.65,1.78,8.06,3.3.64,2.03,1.02,4.12,1.21,6.34l-1.97,2.6-.63.51c-2.73.76-5.58,1.27-8.57,1.59l-1.46-.25-2.6.25-2.09-1.08v-.76c4.12-1.02,8.18-2.03,12.12-3.11l.63-2.86-1.4-2.47c-1.71-1.08-3.68-1.71-5.9-1.84l-4.63,3.11-1.33,2.09-1.02.76c-.32,2.85-.76,5.77-1.33,8.63.13,3.49,1.65,6.41,4.44,8.82,1.59,1.14,3.49,1.65,5.71,1.46,3.05-1.46,6.15-2.73,9.26-3.81.82.51,1.08,1.33.76,2.6-3.05,3.24-6.85,4.63-11.42,4.31-2.85-.63-5.52-1.78-7.93-3.36Z"/>
  <path class="cls-1" d="M67.13,30.96c-1.21-1.21-1.84-2.6-1.84-4.12l.51-10.85-.51-10.02c0-1.9.38-3.74,1.08-5.46l2.6-.51.76.51c-.19,9.9-.19,19.73,0,29.69l-2.6.76ZM84.57,32.48c-.89-2.6-1.33-5.27-1.33-8.12v-8.37l.25-1.08-.51-3.3.25-1.27-.25-1.84.25-1.27-2.6-3.05-3.11-.57c-1.08.82-2.22,1.27-3.62,1.27l-1.08-1.02,3.11-2.54,3.93-.25c1.9.63,3.62,1.65,5.2,3.11,1.4,2.03,2.16,4.38,2.35,6.92.06,6.92-.13,13.89-.57,20.87l-2.28.51Z"/>
  <path class="cls-1" d="M100.24,28.99c-1.9-2.54-2.79-5.46-2.6-8.82.19-3.17.32-6.41.51-9.64s.63-6.28,1.27-9.14l1.33-.25,2.03.7c-.13,3.55-.25,7.11-.51,10.66-.51,2.41-.63,5.01-.51,7.68-.32,3.17.32,5.77,2.09,7.87l2.6.19,3.3-.44,1.02.95v1.14l-6.92,1.46c-1.4-.13-2.6-.95-3.62-2.35ZM114.7,23.86c0-2.6-.19-5.08-.51-7.49l.25-.76-.25-11.17c.63-.82.95-1.78.95-2.79l2.85-.76.82,1.97c-.82,9.2-.63,18.34.51,27.54-.89.82-1.9,1.08-3.11.7-1.02-2.22-1.52-4.63-1.52-7.23Z"/>
</svg>