<?xml version="1.0" encoding="UTF-8"?>
<svg id="_レイヤー_1" data-name="レイヤー 1" xmlns="http://www.w3.org/2000/svg" viewBox="0 0 119.59 43.23">
  <defs>
    <style>
      .cls-1 {
        fill: #4a392f;
      }
    </style>
  </defs>
  <path class="cls-1" d="M5.54,42.87c-1.55-.16-2.9-.78-4.04-1.92-1.14-2.38-1.66-5.03-1.45-7.98l1.04-7.2,1.87-2.13c.73-1.35,1.71-2.59,3.01-3.73,1.71-.88,3.52-1.4,5.49-1.55l1.55.73.16.62-.42.78c-2.7-.41-4.77.47-6.32,2.54-1.3,1.71-2.18,3.52-2.59,5.6-.41,2.02-.73,4.15-.88,6.48.16,1.81.62,3.47,1.35,5.03l1.87.21c1.24-1.14,2.75-1.87,4.51-2.13l.78,1.92c-.67.41-.99.93-.78,1.61l-2.12.73-.47.41-1.3-.21-1.24.21ZM17.25,42.45c-.88,0-1.71-.36-2.38-1.09-.57-1.55-.83-3.27-.83-5.08v-5.44c.16-1.97.26-3.94.41-5.91.1-1.97.41-3.84.83-5.65l1.71-.21,1.3,1.19v2.12l-1.04,12.49c0,2.33.31,4.61,1.04,6.84l-1.04.73Z"/>
  <path class="cls-1" d="M27.25,41.73v-.62l.67-.21v-.62l-1.09-.67c.62-12.96.57-25.97-.21-38.98.57-.57,1.35-.73,2.33-.57l.62.78.67,1.5c-.21,3.58-.1,7.2.15,10.78-.15,3.84-.15,7.62,0,11.35-.41,1.4-.62,2.85-.62,4.41.1,3.21.26,6.43.47,9.69l-.67.26.47,2.75c0,.83-.47,1.24-1.35,1.24l-1.45-1.09ZM34.45,40.49v-.67l3.84-.98.41-.88,1.04-.62c1.24-1.4,1.97-3.11,2.12-5.08.16-1.97.26-3.84.42-5.7-.16-2.18-.98-4.15-2.54-5.86l-2.33-1.24-.62.21c-.88,1.09-1.92,1.61-3.16,1.45l-.67-1.66,1.71-1.71,4.25-.62,2.49,1.24.21.83h.67c1.4,1.55,2.33,3.37,2.75,5.49v.83l.47,1.71-.47.83h.62v1.04l-.16.67.16.62c-.57,3.47-1.97,6.63-4.25,9.43-1.4,1.45-3.21,1.92-5.44,1.55l-1.5-.88Z"/>
  <path class="cls-1" d="M55.34,40.64l-2.59-3.16-.99-5.03.21-1.04-.47-1.92c.57-3.37,1.71-6.53,3.37-9.49,1.87-1.55,3.99-2.44,6.37-2.54l.83.41v.78l-4.41,2.54c-1.55,2.95-2.54,6.12-3.01,9.54-.1,2.95.47,5.6,1.71,7.88,1.4,1.09,3.01,1.5,4.87,1.19l.21,1.14-2.54.98h-1.04l-2.54-1.3ZM64.67,41.73l-.47-1.3,1.45-.98.88-1.55c1.4-2.33,2.18-5.03,2.33-7.98l-.21-1.14.21-2.49c-.31-2.38-1.35-4.41-3.21-6.12l-1.87-.88-.21-.83c.83-.52,1.76-.73,2.75-.57,1.5.78,2.8,1.92,3.78,3.32,1.4,2.85,2.07,6.01,1.92,9.54,0,2.02-.36,3.89-1.14,5.65-.78,1.76-1.66,3.47-2.64,5.18l-2.59.57-.98-.41Z"/>
  <path class="cls-1" d="M80.94,40.23c-1.56-2.07-2.28-4.46-2.13-7.2.16-2.59.26-5.23.42-7.88.15-2.64.52-5.13,1.04-7.46l1.09-.21,1.66.57c-.1,2.9-.21,5.81-.41,8.71-.42,1.97-.52,4.09-.42,6.27-.26,2.59.26,4.72,1.71,6.43l2.12.16,2.7-.36.83.78v.93l-5.65,1.19c-1.14-.1-2.12-.78-2.95-1.92ZM92.75,36.03c0-2.13-.16-4.15-.41-6.12l.21-.62-.21-9.12c.52-.67.78-1.45.78-2.28l2.33-.62.67,1.61c-.67,7.52-.52,14.98.41,22.49-.73.67-1.55.88-2.54.57-.83-1.81-1.24-3.78-1.24-5.91Z"/>
  <path class="cls-1" d="M112.65,41.73l-.78-.36c-.98-1.55-1.55-3.27-1.66-5.08-.15-1.87-.21-3.78-.21-5.7l.57-10.78c-2.07-.57-4.15-1.24-6.27-1.92l-.21-1.3,2.07-.67c1.45.57,2.9.88,4.41.88l1.87-9.54,2.13-.16.83,1.45c-.57,2.64-1.04,5.39-1.45,8.24h1.45l1.45-.21,2.28.88.21.57-.78,1.09-3.58.21-.62-.21c-.57,2.28-.88,4.66-1.04,7.2-.1,3.11-.16,6.17-.21,9.28,0,1.81.47,3.52,1.45,5.08l.83.21c1.14-.83,2.38-1.3,3.73-1.3l.47,1.55c-1.55,1.24-3.32,1.92-5.23,2.07l-1.71-1.5Z"/>
</svg>